#!OML:ASF I:\Actors\actors\Patient Classification 2\Patient 1\Session 1\actor1.ASF
:FULLY-SPECIFIED
:DEGREES
455
root -0.108457 18.3823 6.58076 -7.06024 -0.755689 1.98723
lowerback 6.59321 0.737699 -4.00487
upperback -2.61534 0.521678 -1.55227
thorax -6.46473 0.387009 0.562461
lowerneck -12.0868 -2.36825 -0.143052
upperneck 19.8508 -3.23842 -0.114485
head 8.14159 -1.5633 -0.355136
rclavicle -3.67752e-015 3.33958e-014
rhumerus -22.4976 -4.49303 -48.1627
rradius 103.454
rwrist -50.9216
rhand 8.14207 -58.7226
rfingers 7.12502
rthumb 33.3621 -85.6457
lclavicle -3.67752e-015 3.33958e-014
lhumerus -49.5066 7.00792 78.7806
lradius 45.0389
lwrist -6.03434
lhand -8.87487 -25.1471
lfingers 7.12502
lthumb 17.0669 4.12324
rfemur 0 0 0
rtibia 0
rfoot 0 0
rtoes 0
lfemur 5.41185 -0.793845 -18.5288
ltibia 24.5375
lfoot -23.8045 7.22342
ltoes -56.05
456
root -0.126479 18.378 6.57631 -7.28234 -0.824776 1.86639
lowerback 6.70173 0.773727 -3.9986
upperback -2.498 0.569476 -1.53659
thorax -6.40465 0.408431 0.569699
lowerneck -12.0234 -2.40416 -0.168399
upperneck 19.8816 -3.30679 -0.00543666
head 8.1429 -1.58688 -0.321352
rclavicle 4.07509e-015 -1.59028e-015
rhumerus -22.5765 -4.4744 -48.314
rradius 103.496
rwrist -50.9123
rhand 7.98478 -58.6101
rfingers 7.12502
rthumb 33.2126 -85.5652
lclavicle 4.07509e-015 -1.59028e-015
lhumerus -49.6117 7.16541 78.7639
lradius 45.0717
lwrist -6.08642
lhand -9.02046 -25.0287
lfingers 7.12502
lthumb 16.9267 4.25371
rfemur 0 0 0
rtibia 0
rfoot 0 0
rtoes 0
lfemur 5.61504 -0.824938 -18.3461
ltibia 24.6222
lfoot -23.821 7.2598
ltoes -56.1129
457
root -0.147227 18.3768 6.56776 -7.32712 -0.727114 1.6873
lowerback 6.74984 0.766372 -3.97152
upperback -2.4453 0.562732 -1.51458
thorax -6.37592 0.403528 0.578492
lowerneck -11.9788 -2.46436 -0.146383
upperneck 19.9302 -3.41829 0.100073
head 8.15283 -1.62756 -0.301547
rclavicle -4.96962e-015 -8.34896e-015
rhumerus -22.7076 -4.4535 -48.4327
rradius 103.542
rwrist -50.8365
rhand 7.90393 -58.7488
rfingers 7.12502
rthumb 33.1357 -85.7203
lclavicle -4.96962e-015 -8.34896e-015
lhumerus -49.6682 7.23146 78.7786
lradius 45.0194
lwrist -6.11334
lhand -9.02445 -25.0421
lfingers 7.12502
lthumb 16.9229 4.24066
rfemur 0 0 0
rtibia 0
rfoot 0 0
rtoes 0
lfemur 5.57537 -0.973526 -18.0986
ltibia 24.7288
lfoot -23.7876 7.2743
ltoes -56.1414
458
root -0.168844 18.3762 6.55907 -7.37452 -0.607358 1.49049
lowerback 6.80138 0.759679 -3.92693
upperback -2.39989 0.558459 -1.4863
thorax -6.35679 0.399501 0.583578
lowerneck -11.91 -2.53823 -0.122234
upperneck 19.9882 -3.53964 0.160207
head 8.16068 -1.67732 -0.297869
rclavicle -4.17448e-015 1.94809e-014
rhumerus -22.8728 -4.39339 -48.5261
rradius 103.589
rwrist -50.794
rhand 7.84239 -58.9057
rfingers 7.12502
rthumb 33.0772 -85.8896
lclavicle -4.17448e-015 1.94809e-014
lhumerus -49.7453 7.24703 78.8117
lradius 44.9305
lwrist -6.1551
lhand -9.00803 -25.1037
lfingers 7.12502
lthumb 16.9387 4.17768
rfemur 0 0 0
rtibia 0
rfoot 0 0
rtoes 0
lfemur 5.51422 -1.10307 -17.8111
ltibia 24.861
lfoot -23.8021 7.25246
ltoes -56.1884
459
root -0.190435 18.3758 6.54961 -7.46308 -0.569875 1.34568
lowerback 6.89843 0.7817 -3.93112
upperback -2.34833 0.585767 -1.45673
thorax -6.35933 0.413196 0.612888
lowerneck -11.8396 -2.60378 -0.127475
upperneck 20.0211 -3.6381 0.197864
head 8.15991 -1.72082 -0.294065
rclavicle 1.21259e-014 -4.77083e-015
rhumerus -22.9641 -4.35677 -48.6538
rradius 103.617
rwrist -50.814
rhand 7.82621 -58.7961
rfingers 7.12502
rthumb 33.0618 -85.7832
lclavicle 1.21259e-014 -4.77083e-015
lhumerus -49.8553 7.3065 78.8497
lradius 44.8669
lwrist -6.17634
lhand -9.09892 -25.1154
lfingers 7.12502
lthumb 16.8512 4.17349
rfemur 0 0 0
rtibia 0
rfoot 0 0
rtoes 0
lfemur 5.48998 -1.13111 -17.5605
ltibia 25.0076
lfoot -23.8199 7.22096
ltoes -56.2538
